/* XPM */
static char *Self_WorkbenchLocationDlg_XPM[]={
/* Self_WorkbenchLocationDlg */
"16 16 44 1",
"      c None",
"0     c #D5D5D5",
"1     c #2E2E2E",
"2     c #FFFFFF",
"3     c #FBFBFB",
"4     c #2A2A2A",
"5     c #B6B6B6",
"6     c #4A4A4A",
"7     c #B9B9B9",
"8     c #454545",
"9     c #909090",
"a     c #CACACA",
"b     c #C3C3C3",
"c     c #AEAEAE",
"d     c #5E5E5E",
"e     c #595959",
"f     c #F7F7F7",
"g     c #1E1E1E",
"h     c #CFCFCF",
"i     c #1B1B1B",
"j     c #F5F5F5",
"k     c #A6A6A6",
"l     c #838383",
"m     c #5D5D5D",
"n     c #0C0C0C",
"o     c #E5E5E5",
"p     c #303030",
"q     c #E0E0E0",
"r     c #070707",
"s     c #9C9C9C",
"t     c #232323",
"u     c #A1A1A1",
"v     c #4C4C4C",
"w     c #353535",
"x     c #3C3C3C",
"y     c #686868",
"z     c #BABABA",
"A     c #4D4D4D",
"B     c #BEBEBE",
"C     c #414141",
"D     c #CCCCCC",
"E     c #020202",
"F     c #C8C8C8",
"G     c #242424",
"                ",
"     01         ",
"   234          ",
"  225  678      ",
"  229  a2b      ",
" 222c  d0e      ",
" 222fg          ",
" 2222hi         ",
" 22222jklmn     ",
" 222222222op    ",
" 2222222222qr   ",
" 222222stu22v   ",
"  22222w x22y   ",
"  22222zAB22C   ",
"   22222222DE   ",
"     22222FG    "};

